<?xml version="1.0" encoding="UTF-8" standalone="no"?>
<!-- Created with Inkscape (http://www.inkscape.org/) -->

<svg
   width="8in"
   height="8in"
   viewBox="0 0 203.2 203.2"
   version="1.1"
   id="svg400"
   inkscape:version="1.2.2 (b0a84865, 2022-12-01)"
   sodipodi:docname="arrow-down.svg"
   inkscape:export-filename="arrow-down.png"
   inkscape:export-xdpi="125"
   inkscape:export-ydpi="125"
   xmlns:inkscape="http://www.inkscape.org/namespaces/inkscape"
   xmlns:sodipodi="http://sodipodi.sourceforge.net/DTD/sodipodi-0.dtd"
   xmlns="http://www.w3.org/2000/svg"
   xmlns:svg="http://www.w3.org/2000/svg">
  <sodipodi:namedview
     id="namedview402"
     pagecolor="#6c6c6c"
     bordercolor="#000000"
     borderopacity="0.25"
     inkscape:showpageshadow="2"
     inkscape:pageopacity="0"
     inkscape:pagecheckerboard="0"
     inkscape:deskcolor="#d1d1d1"
     inkscape:document-units="mm"
     showgrid="false"
     inkscape:zoom="0.914906"
     inkscape:cx="374.3554"
     inkscape:cy="337.73961"
     inkscape:window-width="1390"
     inkscape:window-height="1205"
     inkscape:window-x="619"
     inkscape:window-y="25"
     inkscape:window-maximized="0"
     inkscape:current-layer="layer1" />
  <defs
     id="defs397" />
  <g
     inkscape:label="Layer 1"
     inkscape:groupmode="layer"
     id="layer1">
    <path
       style="fill:#ffffff;stroke-width:0.585651;stroke-linejoin:round"
       id="path543"
       d="m 92.553822,25.816001 c 0.119587,0.534089 0.284215,1.060058 0.35875,1.602268 0.326366,2.374085 0.533926,7.265498 0.624943,9.103105 0.162152,3.273792 0.306571,6.548441 0.454323,9.822917 0.896258,19.863884 0.565683,10.325008 0.963367,32.544829 -0.111119,18.037643 -1.41142,36.03761 -3.669704,53.92768 -1.889689,14.97015 -1.416968,9.04372 -3.348327,21.95326 -0.29717,1.98634 -0.507205,3.98475 -0.760818,5.97713 11.222895,6.09248 7.322003,4.96062 31.332944,-1.3587 3.25639,-0.85704 5.45852,-3.94458 8.20402,-5.89416 3.01808,-2.14313 6.04983,-4.26699 9.08645,-6.38378 5.72737,-3.99251 10.08048,-6.95833 15.76388,-10.85063 1.81993,-1.15652 7.47741,-4.2304 5.45979,-3.46956 -25.89876,9.76626 26.25081,-4.53272 -18.9867,-1.7946 -1.17491,0.0711 -2.53878,0.91383 -3.28864,1.82112 -5.93108,7.17625 -6.43008,7.07038 -13.9461,13.84203 -5.29736,4.29217 -11.08026,9.11962 -16.64869,13.11261 -3.1022,2.22453 -8.826437,4.52856 -12.967784,5.27302 -1.602787,0.28812 -5.973164,1.43243 -4.375732,1.11593 5.423288,-1.0745 10.985417,-1.25976 16.478126,-1.88964 -1.90889,-1.48073 -3.925504,-2.83214 -5.726671,-4.4422 -2.170899,-1.94054 -4.167412,-4.07009 -6.165514,-6.18814 -6.4704,-6.85881 -12.376926,-14.2116 -17.806012,-21.91806 -1.519728,-2.15723 -2.934298,-4.38666 -4.401451,-6.57999 -4.280092,-6.9573 -2.336942,-3.64176 -5.876743,-9.91874 l -20.880279,1.24227 v 0 c 4.88706,6.20095 2.296766,2.91316 7.770479,9.86371 5.524948,7.15185 11.063053,14.28668 16.678517,21.36781 4.875911,6.35286 10.479714,13.20064 15.515104,18.84784 13.88503,14.41294 13.53359,12.9114 25.4985,4.44905 18.49476,-14.63732 24.70683,-18.80386 29.53697,-22.87383 12.72749,-9.83201 5.93615,-4.919 18.68872,-13.52056 1.55266,-1.04727 4.56237,-2.21486 4.64921,-3.15474 -32.74359,-9.84879 -17.3679,-7.71934 -24.21529,-0.53953 -1.20481,1.26331 -2.5313,2.40468 -3.79695,3.60703 -7.41381,6.16173 -14.9057,12.25392 -23.19879,17.22942 -3.27739,1.9663 -11.380429,1.80493 -10.10972,5.40951 1.46668,4.16044 8.89337,0.969 12.96057,2.67733 1.46938,0.61718 -3.14417,0.52365 -4.71626,0.78548 -0.50725,-1.92328 -1.22296,-3.80336 -1.52172,-5.76983 -0.84377,-5.55362 -1.04403,-16.98595 -1.10156,-21.9505 -0.20858,-18.0031 0.3249,-36.021975 2.16825,-53.941639 0.73275,-6.039002 1.3414,-12.094359 2.19824,-18.117005 1.68321,-11.831355 4.29994,-23.448312 7.22688,-35.019515 z"
       sodipodi:nodetypes="cssccsscssscssscssscssscccscccccscscssscsscscc" />
  </g>
</svg>
