<?xml version="1.0" encoding="UTF-8" standalone="no"?>
<!-- Created with Inkscape (http://www.inkscape.org/) -->

<svg
   width="128"
   height="128"
   viewBox="0 0 33.866666 33.866666"
   version="1.1"
   id="svg11131"
   inkscape:version="1.2.2 (b0a84865, 2022-12-01)"
   sodipodi:docname="chat-bubble.svg"
   xmlns:inkscape="http://www.inkscape.org/namespaces/inkscape"
   xmlns:sodipodi="http://sodipodi.sourceforge.net/DTD/sodipodi-0.dtd"
   xmlns="http://www.w3.org/2000/svg"
   xmlns:svg="http://www.w3.org/2000/svg">
  <sodipodi:namedview
     id="namedview11133"
     pagecolor="#7e7e7e"
     bordercolor="#000000"
     borderopacity="0.25"
     inkscape:showpageshadow="2"
     inkscape:pageopacity="0"
     inkscape:pagecheckerboard="0"
     inkscape:deskcolor="#d1d1d1"
     inkscape:document-units="mm"
     showgrid="false"
     inkscape:zoom="16"
     inkscape:cx="77.781249"
     inkscape:cy="44.875"
     inkscape:window-width="2560"
     inkscape:window-height="1338"
     inkscape:window-x="0"
     inkscape:window-y="25"
     inkscape:window-maximized="1"
     inkscape:current-layer="g20164" />
  <defs
     id="defs11128" />
  <g
     inkscape:label="Layer 1"
     inkscape:groupmode="layer"
     id="layer1">
    <path
       style="fill:#ffffff;stroke-width:0.574229;stroke-linejoin:round"
       id="path11645-4"
       d="M 7.555933,-6.1845871 C 7.20139,-7.1170561 6.64593,-7.8375771 6.0169,-8.5891041 5.708756,-8.9572551 5.393306,-9.3195561 5.06161,-9.6652061 4.734872,-10.005689 4.382616,-10.319018 4.043119,-10.645922 L 3.147365,-11.38682 c -0.047512,-0.05687 -0.8265263,0.636797 -0.7790141,0.693664 v 0 l 0.7906821,0.7960439 c 0.330276,0.320557 0.658426,0.643466 0.99083,0.961669 0.33874,0.324266 0.686474,0.638498 1.022558,0.965695 0.272979,0.265761 0.540646,0.537398 0.804377,0.812933 0.393362,0.410967 0.777269,0.835818 1.107412,1.303506 0.01674,0.03821 0.488448,-0.29307 0.471723,-0.331278 z"
       sodipodi:nodetypes="cssccsccssscc" />
    <path
       style="fill:#ffffff;stroke-width:0.499672;stroke-linejoin:round"
       id="path11647-3"
       d="m 10.756597,-7.0944191 c 0.273401,-0.445135 0.547631,-0.890935 0.780712,-1.348779 0.262509,-0.515647 0.549945,-1.172195 0.746328,-1.7018709 0.103593,-0.279416 0.187012,-0.563216 0.280519,-0.844823 0.226524,-0.898166 0.15312,-0.480487 0.247542,-1.249111 0.01027,-0.04209 -0.877806,-0.192898 -0.888111,-0.150818 v 0 c -0.307453,0.709346 -0.145745,0.318167 -0.475869,1.175786 -0.285436,0.753903 -0.357532,0.935913 -0.635196,1.7045539 -0.243227,0.673314 -0.488428,1.348602 -0.627818,2.042229 -0.01804,0.08995 -0.02339,0.181605 -0.03509,0.272409 -0.0067,0.02877 0.600203,0.129199 0.606968,0.100429 z" />
    <path
       style="fill:#ffffff;stroke-width:0.402146;stroke-linejoin:round"
       id="path11649-6"
       d="m 43.324041,20.109431 c 0.07108,-0.01251 0.142416,-0.02338 0.213255,-0.03753 0.131711,-0.0263 0.262629,-0.05749 0.394342,-0.08377 0.6077,-0.121262 1.059227,-0.192683 1.68453,-0.34205 0.391503,-0.09352 0.781866,-0.194024 1.169256,-0.307634 0.362822,-0.106405 0.720448,-0.234804 1.080675,-0.352206 0.278587,-0.11036 0.557177,-0.220714 0.835765,-0.33107 0.04604,-0.0296 -0.320156,-0.798089 -0.366187,-0.768488 v 0 c -0.29445,0.07281 -0.588897,0.145635 -0.883348,0.21845 -0.364001,0.107273 -0.730247,0.205014 -1.092002,0.32181 -0.377119,0.121756 -0.751087,0.256238 -1.124091,0.393677 -0.709484,0.261423 -1.415212,0.54655 -2.093975,0.901943 -0.02318,0.01469 0.158606,0.401581 0.181782,0.386893 z" />
    <path
       style="fill:#ffffff;stroke-width:0.702241;stroke-linejoin:round"
       id="path11651-3"
       d="m 41.99977,23.047858 c 0.115678,0.186942 0.21831,0.382873 0.347057,0.560824 0.365336,0.504958 0.887013,1.07917 1.317231,1.516109 0.526852,0.535081 1.030755,0.989848 1.610046,1.463499 0.236417,0.193305 0.483076,0.373349 0.724615,0.560027 0.05117,0.05397 0.802529,-0.679106 0.751359,-0.733062 v 0 c -0.746165,-0.661012 -1.489167,-1.324662 -2.217631,-2.005833 -0.383545,-0.358645 -1.03479,-0.990885 -1.444703,-1.347063 -0.150823,-0.131055 -0.311838,-0.249532 -0.467757,-0.374295 -0.02512,-0.04452 -0.645355,0.31528 -0.620217,0.359794 z" />
    <path
       style="fill:#ffffff;stroke-width:0.554646;stroke-linejoin:round"
       id="path11653-4"
       d="m -9.8682094,21.795602 c -0.1614686,-0.01348 -0.3222606,-0.03684 -0.4844226,-0.0403 -1.267883,-0.02678 -2.522961,0.115561 -3.782242,0.365019 -0.398512,0.07895 -0.7936,0.186598 -1.1904,0.279896 -0.06755,0.0321 0.274443,1.158151 0.341996,1.12606 v 0 c 0.404007,-0.0585 0.808722,-0.107799 1.212022,-0.175514 0.463977,-0.0779 0.927503,-0.162684 1.389393,-0.261263 0.891841,-0.190339 1.775765,-0.434888 2.6566076,-0.697309 0.03568,-0.01377 -0.107272,-0.61035 -0.142954,-0.596586 z" />
    <path
       style="fill:#ffffff;stroke-width:0.529371;stroke-linejoin:round"
       id="path11655-7"
       d="m -8.3296114,24.839431 c -0.21776,0.525502 -0.475718,1.132257 -0.646324,1.649369 -0.147037,0.445686 -0.27377,0.896167 -0.390509,1.34833 -0.189745,0.734931 -0.379961,1.654216 -0.483463,2.414573 -0.03349,0.24635 -0.04342,0.495289 -0.06515,0.742931 -0.0115,0.05259 0.974567,0.221003 0.986032,0.168413 v 0 c 0.09399,-0.235643 0.199847,-0.468231 0.28195,-0.706931 0.249053,-0.724073 0.500945,-1.659951 0.654275,-2.389179 0.201571,-0.958651 0.296222,-1.57641 0.329188,-2.533434 0.0068,-0.198529 -0.01774,-0.398396 -0.02661,-0.597595 0.0063,-0.03415 -0.633133,-0.130626 -0.639386,-0.09647 z" />
    <path
       style="fill:#ffffff;stroke-width:0.574229;stroke-linejoin:round"
       id="path11661-4"
       d="m 1.7007593,-13.846896 c 0.049892,0.0059 0.099785,0.01178 0.1496765,0.01767 0.014359,0.0053 0.028056,0.01319 0.043082,0.01587 0.115813,0.02068 0.33686,0.190947 0.4417763,0.261404 0.1268139,0.08516 0.2326795,0.29005 0.3066434,0.407645 0.04291,0.104606 0.1023541,0.20353 0.1287325,0.313817 0.033346,0.139418 0.040784,0.284502 0.048666,0.427877 0.023776,0.432551 -7.64e-4,0.893486 -0.1893526,1.290042 -0.044137,0.0928 -0.1133249,0.17048 -0.1699863,0.25572 -0.3434499,0.172302 -0.6344687,0.12224 -0.9916574,0.05202 -0.3266422,-0.06422 -0.54074933,-0.051 -0.77884893,-0.310705 -0.0825066,-0.09001 -0.1190836,-0.215205 -0.1786258,-0.322806 -0.0173219,-0.14207 -0.0555957,-0.283067 -0.0519668,-0.426208 0.004549,-0.179508 0.0361277,-0.358201 0.0762787,-0.53292 0.1103513,-0.480222 0.3365324,-1.011682 0.73259343,-1.317354 0.089317,-0.06893 0.2017336,-0.0982 0.3026003,-0.147298 0.1093279,0.01125 0.2210238,0.0078 0.3279839,0.03373 0.053613,0.013 0.096227,0.05538 0.1453823,0.08101 0.085515,0.04459 0.1723625,0.08641 0.2585437,0.129615 0.037377,0.03138 0.4180309,-0.443255 0.4180309,-0.443255 v 0 c 0,0 -0.235761,-0.189604 -0.3745461,-0.238805 -0.5915689,-0.209721 -0.6476711,-0.236445 -1.2091801,-0.146769 -0.15545153,0.08846 -0.32624403,0.152874 -0.46635403,0.26538 -0.6846206,0.549741 -1.0257217,1.559415 -0.9592293,2.434472 0.016724,0.220066 0.091831,0.431186 0.1377458,0.646778 0.1102932,0.179973 0.1889028,0.385414 0.3308799,0.53992 0.2910865,0.316771 0.6511273,0.466919 1.06285203,0.514405 0.4556049,0.05255 0.959445,0.05001 1.3887301,-0.152859 0.1600371,-0.07562 0.2869061,-0.210569 0.4303593,-0.315856 0.084751,-0.128282 0.186218,-0.246361 0.254253,-0.384846 0.323824,-0.659144 0.327656,-1.487756 0.103543,-2.178506 -0.046725,-0.144014 -0.124456,-0.275244 -0.186683,-0.412866 -0.218105,-0.301396 -0.2586429,-0.420913 -0.5776578,-0.615744 -0.2880313,-0.17591 -0.7372579,-0.159154 -1.0530386,-0.11041 -0.037171,0.01248 0.061602,0.382299 0.098774,0.369822 z"
       sodipodi:nodetypes="cccccsscccscsssccccssscsscscccsscscc" />
    <path
       style="fill:#ffffff;stroke-width:0.660783;stroke-linejoin:round"
       id="path11673-0"
       d="m 11.84425,-13.225123 c -0.0613,-0.0119 -0.131797,-0.0031 -0.18334,-0.03841 -0.02743,-0.0188 0.02281,0.0022 -0.01661,-0.09861 -0.08574,-0.456719 -0.05107,-0.157124 -0.0706,-0.753916 0.02846,-0.479096 0.06172,-1.074004 0.377941,-1.470559 0.07245,-0.09085 0.161448,-0.190925 0.275185,-0.213569 0.244398,-0.04866 0.537462,0.14439 0.734836,0.247425 0.189871,0.107183 0.400986,0.183179 0.569616,0.321551 0.341985,0.280621 0.613576,0.711334 0.746876,1.130996 0.08804,0.277181 0.149006,0.723853 -0.02845,1.000801 -0.06651,0.103798 -0.199608,0.144266 -0.29941,0.216399 -0.159526,0.01957 -0.31794,0.06314 -0.478578,0.05872 -0.461418,-0.01271 -0.694237,-0.09325 -1.10381,-0.237601 -0.672559,-0.237036 -0.469337,-0.152139 -1.018682,-0.450465 -0.04338,-0.04153 -0.401784,0.37478 -0.376018,0.4291 l 0.03487,0.0735 c 0.08707,0.183549 0.121866,0.292947 0.296258,0.396465 0.564352,0.334995 1.049141,0.572033 1.714465,0.628615 0.287537,0.02445 0.582744,0.01414 0.864397,-0.0491 0.256862,-0.05767 0.484972,-0.205548 0.727458,-0.308322 0.162071,-0.185623 0.371183,-0.338777 0.486223,-0.556867 0.114816,-0.217663 0.170941,-0.469258 0.1847,-0.715065 0.05134,-0.917349 -0.44081,-1.794083 -1.145988,-2.347446 -0.224201,-0.175933 -0.499929,-0.273262 -0.749894,-0.409892 -0.747054,-0.128383 -1.079909,-0.332006 -1.766275,0.02191 -0.178234,0.0919 -0.318104,0.251737 -0.439048,0.412033 -0.266834,0.353653 -0.390868,0.787054 -0.441606,1.219749 -0.02582,0.220013 -0.0058,0.442994 -0.0088,0.66449 0.09418,0.562607 0.114553,1.051834 0.619559,1.417363 0.06428,0.04653 0.152591,0.04418 0.230573,0.05855 0.171073,0.03151 0.231073,0.02452 0.395152,0.02379 0.205948,-0.443547 -0.03444,-0.620917 -0.131036,-0.671636 z"
       sodipodi:nodetypes="csccsscssscsscssssscssscssccsscc" />
    <path
       style="fill:#ffffff;stroke-width:0.93175;stroke-linejoin:round"
       id="path11703-7"
       d="m 49.549657,15.646434 c -0.204646,0.131174 -0.391205,0.288613 -0.586807,0.432923 -0.15618,0.169873 -0.332781,0.323032 -0.468556,0.509622 -0.331835,0.456019 -0.503893,1.025766 -0.357123,1.583092 0.10957,0.416091 0.252443,0.508806 0.524606,0.827431 0.144,0.110434 0.278768,0.234025 0.431946,0.331299 0.526268,0.334192 1.172234,0.547815 1.796693,0.577147 0.12261,0.0058 0.24549,-0.0043 0.36824,-0.0063 0.223308,-0.05438 0.451956,-0.09022 0.669927,-0.16312 0.152815,-0.05111 0.294443,-0.131569 0.436842,-0.206982 0.481126,-0.254785 0.977692,-0.568403 1.297734,-1.022542 0.108487,-0.15393 0.176881,-0.332503 0.26533,-0.498751 0.03599,-0.165011 0.09417,-0.326709 0.107929,-0.495031 0.02488,-0.305544 -0.03641,-0.578601 -0.166846,-0.85202 -0.161642,-0.338773 -0.435021,-0.577023 -0.706878,-0.823017 -0.449456,-0.341822 -0.93978,-0.649982 -1.483363,-0.81801 -0.09985,-0.03086 -0.202817,-0.0506 -0.304226,-0.07591 -0.297289,-0.03908 -0.73129,0.132489 -1.013565,0.272937 -0.184964,0.09203 -0.122295,0.127471 -0.125018,0.3064 -9.75e-4,0.06318 0.03634,0.121059 0.0545,0.181589 0.0243,0.05657 0.824214,-0.288 0.799851,-0.344556 v 0 c 0.0048,0.03287 0.01944,0.06594 0.01418,0.09868 -0.0157,0.09432 -0.05596,0.276726 -0.169675,0.327555 -0.06754,0.0302 -0.146483,0.02167 -0.218825,0.03718 -0.08523,0.01836 0.493317,-0.07709 0.261377,0.0092 0.199917,0.04337 0.271464,0.05143 0.467918,0.12635 0.355693,0.135651 0.680107,0.343629 0.992822,0.557192 0.171216,0.134716 0.381284,0.270514 0.499253,0.460891 0.125419,0.202403 0.09441,0.409946 0.01887,0.625039 -0.05401,0.094 -0.09383,0.197779 -0.162099,0.282004 -0.237919,0.293508 -0.74963,0.714907 -0.922675,0.823161 -0.173041,0.108254 -0.283982,0.175268 -0.451858,0.223876 -0.06857,0.01175 -0.136157,0.0357 -0.205747,0.03506 -0.168444,-0.0012 -0.456438,-0.08974 -0.60084,-0.134248 -0.400863,-0.123499 -0.79882,-0.265854 -1.160668,-0.481544 -0.135349,-0.09796 -0.249123,-0.145099 -0.311818,-0.307717 -0.177893,-0.461381 0.360022,-0.892529 0.642861,-1.146314 0.176958,-0.114089 0.349439,-0.235445 0.530884,-0.342253 0.575314,-0.338652 1.182116,-0.626128 1.795606,-0.887517 0.412604,-0.1758 0.347668,-0.02891 0.411763,-0.202951 -1.139861,-0.503402 -1.899813,-0.508573 -2.972532,0.1802 z"
       sodipodi:nodetypes="ccsscsccsssccccscsscsscsccccscczccccscssccc" />
    <path
       style="fill:#ffffff;stroke-width:0.702241;stroke-linejoin:round"
       id="path11705-5"
       d="m 47.802182,25.863215 c -0.848517,0.46346 -1.696175,1.101362 -2.243856,1.917546 -0.122154,0.182042 -0.210889,0.385002 -0.316333,0.577504 -0.05886,0.230636 -0.148566,0.455341 -0.176578,0.691919 -0.06493,0.54838 0.37627,1.53435 0.832388,1.897558 0.13395,0.106662 0.293466,0.195703 0.461773,0.221563 0.25761,0.03958 0.520596,-0.02033 0.780886,-0.03065 0.205831,-0.07713 0.961511,-0.263775 2.017759,-0.903799 0.642312,-0.420523 0.813488,-0.883034 1.19192,-1.483216 0.144257,-0.228784 0.157154,-0.59687 0.240989,-0.854844 -0.0046,-0.265612 0.03092,-0.535088 -0.01421,-0.796825 -0.10656,-0.618384 -0.816694,-1.383311 -1.436228,-1.564077 -0.563846,-0.164517 -0.996819,-0.05898 -1.549813,0.150599 -0.422921,0.217786 -0.646857,0.376251 -0.99159,0.678767 -0.189141,0.165979 -0.696562,0.213791 -0.80736,0.462755 -0.04096,0.09203 0.14663,0.149491 0.127484,0.248604 -0.0074,0.04935 0.385038,0.273913 0.392494,0.224568 v 0 c -0.01082,0.109415 -0.01117,0.02259 0.168078,-0.08582 0.477947,-0.289035 0.995138,-0.503867 1.511717,-0.709664 0.239787,-0.118898 0.673293,-0.296595 0.948629,-0.11336 0.09563,0.06365 0.334383,0.202986 0.39059,0.304044 0.20643,0.371156 0.311093,0.296041 0.344765,0.95746 -0.0042,0.258186 0.01079,0.433141 -0.05457,0.608602 -0.143374,0.384589 -0.327258,0.857283 -0.696952,1.138986 -0.21131,0.161018 -0.491377,0.338148 -0.822883,0.532433 -0.442857,0.259544 -0.958842,0.557992 -1.406836,0.476143 -0.222316,-0.03387 -0.701252,-0.547227 -0.729184,-0.744792 -0.02091,-0.14757 -0.02368,-0.29898 -0.0076,-0.447119 0.01768,-0.162695 0.07217,-0.319027 0.108257,-0.478543 0.0945,-0.150763 0.177855,-0.309337 0.283489,-0.452286 0.285788,-0.386747 0.520195,-0.593585 0.87239,-0.921709 0.15811,-0.147303 0.319705,-0.290707 0.479557,-0.436061 0.126637,-0.121317 0.251982,-0.244027 0.379904,-0.363944 0.07261,-0.06806 0.147716,-0.133257 0.221571,-0.199895 0.03497,-0.03588 -0.465652,-0.538312 -0.500636,-0.50245 z"
       sodipodi:nodetypes="cscsssccsccscsscssccsscsssccscsscsccc" />
    <path
       style="fill:#ffffff;stroke-width:0.607999;stroke-linejoin:round"
       id="path11707-0"
       d="m -10.850505,30.467663 c -0.375196,0.112748 -0.747663,0.370924 -1.027834,0.6489 -0.06813,0.0676 -0.125328,0.145394 -0.187993,0.21809 -0.04856,0.08698 -0.107834,0.168781 -0.14567,0.260929 -0.177358,0.431934 -0.155175,0.950538 0.06409,1.363444 0.06679,0.125779 0.163834,0.232993 0.245751,0.349488 0.112892,0.09623 0.215336,0.206273 0.338679,0.288681 0.565242,0.377644 1.351295,0.457908 2.0122866,0.445217 0.173405,-0.0033 0.346155,-0.02233 0.519232,-0.0335 0.487105,-0.07066 0.970286,-0.197808 1.350604,-0.529923 0.218006,-0.190377 0.368778,-0.429885 0.494976,-0.686321 0.05807,-0.117997 0.09911,-0.243635 0.148663,-0.365456 0.09851,-0.339549 0.233386,-0.751238 0.109953,-1.105275 -0.08144,-0.233594 -0.143152,-0.248964 -0.322697,-0.418874 -0.13499,-0.06384 -0.264038,-0.142165 -0.40497,-0.191519 -0.318147,-0.111417 -0.837426,-0.198462 -1.16097,-0.237479 -0.472929,-0.057 -0.936724,-0.09642 -1.4119076,-0.09049 -0.135109,0.0017 -0.269745,0.01637 -0.404618,0.02456 -0.07934,0.01903 -0.195072,0.02863 -0.346776,0.111541 -0.724541,0.335149 -0.08597,0.278286 0.01292,0.548564 0.0227,0.06203 0.119149,0.0581 0.182082,0.07815 0.219046,-0.0045 0.485069,0.01315 0.61859,0.02554 0.03689,0.0011 0.07378,0.0022 0.110672,0.0033 0.04241,-0.0065 -0.170418,-0.565243 -0.212829,-0.558738 v 0 c -0.03904,-0.0063 -0.07806,-0.01274 -0.117094,-0.01906 0.0929,0.01243 -0.201877,-0.02698 -0.216657,0.01233 -0.05342,0.142091 -0.06176,0.297294 -0.0887,0.446686 -0.0024,0.01331 -0.01194,0.03614 8.57e-4,0.04059 0.06724,0.02337 0.140655,0.0221 0.210992,0.03307 0.426595,0.0507 0.478769,0.06024 0.9480836,0.09915 0.341066,0.0283 0.68292,0.04632 1.024124,0.07293 0.16721,0.01309 0.08417,0.0055 0.251492,0.01714 0.100985,0.007 0.207966,0.01386 0.346119,0.03167 0.106009,0.01947 0.209464,0.0568 0.266695,0.110812 0.05643,0.05325 0.07511,0.150591 0.07202,0.215009 -0.03418,0.167593 -0.08846,0.352283 -0.142937,0.511516 -0.105323,0.262339 -0.197918,0.556169 -0.436996,0.733408 -0.315918,0.234204 -0.7283,0.277873 -1.101723,0.339528 -0.615708,0.03656 -0.307201,0.02975 -0.9116836,0.02096 -0.07054,-0.0011 -0.141643,0.0059 -0.211643,-0.003 -0.209153,-0.02636 -0.468486,-0.08503 -0.661064,-0.178218 -0.08966,-0.04339 -0.167752,-0.107442 -0.251628,-0.161165 -0.06372,-0.06955 -0.136074,-0.132096 -0.19119,-0.208654 -0.145811,-0.202536 -0.196929,-0.426727 -0.169684,-0.671651 0.0067,-0.06029 0.0152,-0.121443 0.03626,-0.178345 0.02081,-0.05635 0.05848,-0.104949 0.08772,-0.157422 0.0455,-0.05029 0.08742,-0.104051 0.136496,-0.150852 0.240014,-0.228915 0.541863,-0.373516 0.827648,-0.534439 0.03585,-0.02118 -0.253831,-0.591933 -0.289691,-0.570758 z"
       sodipodi:nodetypes="cscsscsccsscscsccccscccsscscscccccsccsccsscsscccccc" />
    <path
       style="fill:#ffffff;stroke-width:0.573666;stroke-linejoin:round"
       id="path11743-2"
       d="m -17.610199,20.57994 c -0.207474,0.140658 -0.442544,0.254715 -0.622421,0.421971 -0.531733,0.494424 -0.962071,1.134213 -1.069346,1.82803 -0.113169,0.731938 0.07952,1.622777 0.59052,2.244848 0.219742,0.267503 0.570514,0.429862 0.855771,0.644792 0.432276,0.04769 0.876094,0.227076 1.296828,0.143066 0.399257,-0.07972 0.732335,-0.341169 1.007799,-0.603246 0.49862,-0.474419 0.90881,-1.394784 0.89749,-2.053645 -0.01656,-0.963429 -0.379459,-1.193931 -0.967775,-1.927411 -0.661979,-0.412532 -0.88576,-0.671584 -1.69595,-0.752947 -0.305623,-0.03062 -0.4251,0.142477 -0.730987,0.370815 -0.05502,0.01536 0.02904,0.379001 0.08406,0.363625 v 0 c 0.07899,-0.01483 0.156035,-0.0532 0.236957,-0.04451 0.62124,0.06657 0.821762,0.142937 1.148915,0.397297 0.175956,0.191276 0.482787,0.45076 0.611986,0.668248 0.350613,0.590204 0.296108,0.986308 0.08296,1.603534 -0.179218,0.518957 -0.39535,0.870521 -0.894667,1.173099 -0.10404,0.06306 -0.242247,0.0674 -0.363368,0.101083 -0.190351,-0.124231 -0.428435,-0.206311 -0.571053,-0.372687 -0.191255,-0.223118 -0.315423,-0.490806 -0.398529,-0.758422 -0.09287,-0.299052 -0.145847,-0.613453 -0.122663,-0.91991 0.05827,-0.770292 0.413294,-1.217194 0.867468,-1.836707 0.133536,-0.174344 -0.204889,-0.711958 -0.243993,-0.690923 z"
       sodipodi:nodetypes="cssscccscccssccssscssscc" />
    <g
       id="g20164"
       transform="matrix(0.85423338,0.32504066,-0.32504066,0.85423338,12.101726,-2.8459149)">
      <path
         style="fill:#ffffff;stroke-width:1.51701;stroke-linejoin:round"
         id="path11923"
         d="m 10.733303,23.722042 c 0.186417,0.191636 0.327229,0.442128 0.559255,0.574929 2.565871,1.468417 6.160682,1.215959 8.886962,0.405518 0.794473,-0.236172 1.542468,-0.607163 2.313698,-0.910757 0.641068,-0.387387 1.318769,-0.719776 1.923203,-1.162142 1.383597,-1.012638 2.613878,-2.442791 2.930681,-4.180109 0.289208,-1.585992 -0.0797,-2.188582 -0.488923,-3.79658 C 26.547604,14.09025 26.289343,13.495369 25.926453,12.964946 24.698998,11.170796 21.712247,6.6357574 19.631514,5.970807 17.38798,5.2538356 16.619359,5.4269427 14.273034,5.4039558 13.381552,5.5585212 12.468435,5.6186712 11.598576,5.8676348 8.4453958,6.7701116 6.380013,8.3175023 5.6673163,11.777586 5.527939,12.454243 5.5338478,16.954283 5.5193808,17.64499 c 0.2499002,0.819759 0.4110248,1.672027 0.7496764,2.459284 0.2777017,0.645645 0.6781693,1.23488 1.0856915,1.807503 1.0733416,1.50814 3.2966273,2.971057 4.1607013,3.148544 0.665127,0.13662 2.122707,0.434261 2.526843,0.416293 1.272202,-0.118294 1.556059,-0.04327 1.44014,-0.501473 -0.354074,-1.640091 -2.434471,-0.503061 -2.503356,-0.42088 v 0 c 0.523552,-0.09152 0.581695,-0.021 0.215155,-0.169891 -0.23371,-0.154804 -0.478981,-0.293392 -0.70107,-0.464427 -0.813547,-0.626528 -1.574996,-1.35349 -2.266723,-2.108556 C 9.8022229,21.348311 9.3799279,20.880302 9.0088968,20.373611 8.4072393,19.551972 8.0981116,18.904464 7.6549049,18.051621 7.6059261,17.588362 7.4536371,17.124479 7.5079673,16.66185 7.6515069,15.441538 7.0473123,11.432623 7.9608079,10.650405 8.9846954,9.7736612 10.785829,8.7620072 12.058943,8.3679272 c 0.752736,-0.233022 1.552889,-0.268664 2.329333,-0.402983 1.743205,-0.05095 2.842592,-0.214759 4.538005,0.224474 1.767013,0.457781 4.33311,4.7632068 5.374104,6.2169508 0.297265,0.415123 0.522681,0.877243 0.784034,1.31586 0.327328,0.682814 0.556853,0.977476 0.505544,1.823901 -0.02097,0.345579 -0.130279,0.689497 -0.287108,0.998144 -0.74199,1.460261 -2.274072,2.222969 -3.645305,2.94938 -0.674745,0.257111 -1.333315,0.56155 -2.024238,0.771365 -1.406261,0.426983 -2.947604,0.688135 -4.416272,0.756516 -0.336664,0.01567 -2.651707,0.133032 -3.223543,-0.02312 -0.198969,-0.05432 -1.280723,-0.722766 -1.454992,-0.8331 -0.08574,-0.06535 0.109058,1.491347 0.194776,1.556707 z"
         sodipodi:nodetypes="ccscsscsscssccssccsscssscccscsscssccsscsc" />
      <path
         style="fill:#ffffff;fill-opacity:1;stroke:none;stroke-width:0.278;stroke-linejoin:round;stroke-opacity:0.204819"
         id="path20160"
         d="m 5.5885257,15.991123 c 0.010859,0.211016 0.022334,0.373151 0.014634,0.593924 -0.00523,0.149943 -0.080749,1.109195 -0.08587,1.169061 -0.026389,0.308503 -0.046568,0.617745 -0.084631,0.925026 -0.046195,0.372932 -0.1120246,0.743168 -0.1680371,1.114752 -0.091869,0.408401 -0.1692537,0.820331 -0.2756067,1.225201 -0.1930749,0.735007 -0.4887341,1.603034 -0.7596346,2.315021 -0.299598,0.787411 -0.5296842,1.331012 -0.9203928,2.072938 -0.1507334,0.286231 -0.32224,0.561032 -0.4833601,0.841548 -0.3397343,0.547403 -0.7121798,1.075694 -1.1382166,1.559695 -0.1081728,0.150767 -0.2615086,0.258598 -0.3836536,0.39589 -0.024775,0.02785 -0.042696,0.06111 -0.064045,0.09166 0.8831952,0.07244 1.7635194,0.204361 2.6495859,0.217326 0.088269,0.0013 0.1248085,-0.126595 0.1981968,-0.175657 0.1179322,-0.07885 0.2451491,-0.14332 0.3724764,-0.205867 0.5799873,-0.284909 1.1916632,-0.484323 1.8030058,-0.688303 0.8251795,-0.253904 0.7602902,-0.239853 1.6110915,-0.476826 0.3175995,-0.08846 0.6346648,-0.179103 0.9541835,-0.260359 0.3322238,-0.08449 0.6668069,-0.159434 1.0007611,-0.236798 0.8262468,-0.19141 1.1226178,-0.253239 1.9461608,-0.432741 1.119627,-0.241187 2.240498,-0.479879 3.373487,-0.650667 0.560394,-0.08448 0.700442,-0.0948 1.242592,-0.15443 0.363108,-0.03823 0.727424,-0.061 1.091948,-0.07953 l -2.466086,-0.369622 v 0 c -0.298606,0.03732 -0.597058,0.07592 -0.894782,0.11984 -0.36973,0.0566 -0.762861,0.114417 -1.129235,0.181561 -0.348736,0.06391 -1.147914,0.231385 -1.47134,0.298472 -0.295895,0.06138 -0.592435,0.119738 -0.887612,0.184479 -0.286387,0.06281 -0.571315,0.132104 -0.8569716,0.198155 -0.7044388,0.160149 -1.2075794,0.27275 -1.9129769,0.44046 -0.3313647,0.07878 -0.6618739,0.161126 -0.993054,0.240681 -0.3521807,0.0846 -0.7060861,0.162169 -1.0570246,0.251782 -0.2963167,0.07567 -1.3920095,0.388844 -1.6928825,0.474272 -0.814084,0.25238 -0.6305532,0.182059 -1.3833317,0.463767 -0.2018046,0.07552 -0.4030102,0.152669 -0.6034332,0.231782 -0.1611932,0.06363 -0.3175235,0.139941 -0.481358,0.196422 -0.93536536,0.322463 -2.12802798,-0.0786 2.1882842,0.328041 -0.00557,-0.01013 -0.019751,-0.01926 -0.016724,-0.03043 0.027211,-0.100388 0.1814735,-0.360137 0.2099003,-0.412866 0.2847665,-0.528206 0.5616091,-1.060951 0.8175265,-1.603832 0.4426641,-0.971979 0.8964422,-1.94166 1.2534164,-2.949671 0.2600061,-0.734194 0.4912871,-1.584484 0.7075829,-2.33008 0.1191829,-0.410837 0.2393765,-0.821381 0.3590647,-1.232071 0.099258,-0.372565 0.1981647,-0.745225 0.2977753,-1.117696 0.1439511,-0.538272 -0.3002051,-1.08075 -0.168858,-1.621071 0.040099,-0.164956 0.072742,-0.331661 0.1125505,-0.496688 0.040811,-0.169183 0.1088552,-0.416075 0.1579891,-0.596622 l -1.9830963,-0.0099 z"
         sodipodi:nodetypes="sssscsssccscccscssscscccscssscssscsssccscsscsssccs" />
    </g>
  </g>
</svg>
