<?xml version="1.0" encoding="UTF-8" standalone="no"?>
<!-- Created with Inkscape (http://www.inkscape.org/) -->

<svg
   width="128"
   height="128"
   viewBox="0 0 33.866666 33.866666"
   version="1.1"
   id="svg1768"
   inkscape:version="1.2.2 (b0a84865, 2022-12-01)"
   sodipodi:docname="swirlyjig.svg"
   xmlns:inkscape="http://www.inkscape.org/namespaces/inkscape"
   xmlns:sodipodi="http://sodipodi.sourceforge.net/DTD/sodipodi-0.dtd"
   xmlns="http://www.w3.org/2000/svg"
   xmlns:svg="http://www.w3.org/2000/svg">
  <sodipodi:namedview
     id="namedview1770"
     pagecolor="#7e7e7e"
     bordercolor="#000000"
     borderopacity="0.25"
     inkscape:showpageshadow="2"
     inkscape:pageopacity="0"
     inkscape:pagecheckerboard="0"
     inkscape:deskcolor="#d1d1d1"
     inkscape:document-units="mm"
     showgrid="false"
     inkscape:zoom="3.659624"
     inkscape:cx="55.196927"
     inkscape:cy="59.022457"
     inkscape:window-width="1390"
     inkscape:window-height="1205"
     inkscape:window-x="1076"
     inkscape:window-y="76"
     inkscape:window-maximized="0"
     inkscape:current-layer="layer1" />
  <defs
     id="defs1765" />
  <g
     inkscape:label="Layer 1"
     inkscape:groupmode="layer"
     id="layer1">
    <path
       style="fill:#ffffff;stroke-width:0.607999;stroke-linejoin:round"
       id="path1709"
       d="m 12.951816,7.4722872 c 0.13263,-0.617972 0.73413,-1.087349 1.25643,-1.375885 0.27055,-0.149464 0.56001,-0.261801 0.84002,-0.392701 1.61844,-0.586112 3.32056,-0.906844 5.03368,-1.047008 0.50052,-0.04095 2.00681,-0.06637 1.5047,-0.07541 -1.31766,-0.02374 -2.63567,0.02087 -3.9535,0.0313 1.49869,0.06145 2.9921,0.327918 4.31364,1.072663 0.79129,0.445931 1.01186,0.697246 1.69289,1.287856 0.24952,0.267665 0.51433,0.521845 0.74855,0.803005 1.13071,1.35729 1.89926,2.9870598 2.41993,4.6660198 0.16069,0.51815 0.2785,1.04864 0.41775,1.57296 0.29342,1.65 0.36571,1.80462 0.48252,3.49948 0.0439,0.63757 0.0919,1.27683 0.0765,1.91573 -0.0152,0.62624 -0.0779,1.25186 -0.16819,1.87174 -0.21392,1.46806 -0.40652,1.88135 -0.84833,3.25983 -0.20559,0.44577 -0.38062,0.90695 -0.61678,1.3373 -2.598106,3.936615 -13.331319,3.978868 -16.26511,1.34534 -0.78186,-0.76635 -0.90026,-1.05344 -1.4978397,-1.96346 -0.18223,-0.37555 -0.39143,-0.73918 -0.54671,-1.12665 -0.48771,-1.21704 -0.70197,-2.53858 -0.73995,-3.84344 -0.0338,-1.16075 0.0508,-1.66793 0.16083,-2.81999 0.0465,-0.52001 0.0604,-1.04398 0.13954,-1.56002 0.33922,-2.21083 1.2132,-4.38279 2.6176097,-6.1358198 0.34922,-0.43591 0.76221,-0.81666 1.14332,-1.22499 0.43635,-0.369 0.85164,-0.76446 1.30905,-1.107 1.49064,-1.116282 3.1891,-1.969045 4.93855,-2.595991 1.53917,-0.55159 2.13536,-0.633442 3.71282,-0.984202 l 1.67819,-0.26934 c 0,0 -4.7003,-0.615223 -5.03103,-0.656564 0,0 -0.48369,-0.02894 -0.69453,0.0041 -0.3266,0.07028 -0.88579,0.265994 -0.88579,0.265994 -0.53743,0.156478 -1.07901,0.299374 -1.6123,0.469434 -2.48426,0.792207 -4.95111,1.787042 -7.0738797,3.331125 -0.49353,0.358994 -0.94015,0.778404 -1.41023,1.167614 -0.38501,0.43404 -0.80464,0.83969 -1.15504,1.30212 -1.40772,1.8578098 -2.16179,4.1251698 -2.77434,6.3443198 -0.14639,0.53034 -0.26911,1.06693 -0.40367,1.6004 -0.0847,1.02716 -0.16922,1.86033 -0.19022,2.89253 -0.0188,0.92245 -0.0102,1.89522 0.17894,2.80489 0.21141,1.01652 0.49667,1.52258 0.91454,2.46132 0.22101,0.37179 0.42066,0.75714 0.66302,1.11537 0.46712,0.69043 1.02623,1.36332 1.68347,1.884 0.33298,0.26379 0.68715,0.50759 1.06884,0.69406 0.79616,0.38893 2.00645,0.64515 2.8406597,0.85705 0.57531,0.10749 1.14779,0.23139 1.72593,0.32247 0.99947,0.15746 2.95191,0.39124 3.94505,0.41164 2.17484,0.0447 4.35082,0.0457 6.52589,0.0137 0.71542,-0.0105 1.43002,-0.0689 2.14186,-0.14121 0.73755,-0.075 1.4691,-0.2003 2.20365,-0.30045 1.40778,-0.32416 1.98298,-0.97801 3.23324,-1.72347 0.3878,-0.23123 0.71389,-0.55926 1.02043,-0.89076 0.6204,-0.67093 1.03436,-1.42708 1.3492,-2.27971 0.16885,-0.45727 0.26803,-0.93733 0.40205,-1.40599 0.0896,-0.52969 0.20067,-1.05619 0.26886,-1.58907 0.14569,-1.13854 0.40065,-2.16276 0.4625,-3.3013 0.0354,-0.65092 0.0976,-1.30107 0.10334,-1.95293 0.01,-1.11975 -0.34203,-2.70207 -0.43097,-3.81904 -0.0765,-0.53979 -0.13433,-1.08255 -0.22946,-1.61937 -0.30899,-1.74356 -0.57136,-2.8771198 -1.30697,-4.5290998 -0.15395,-0.345716 -0.48287,-0.582853 -0.7243,-0.874281 -0.68337,-0.640997 -0.94033,-0.944364 -1.74273,-1.445388 -0.618,-0.385881 -1.4389,-0.758584 -2.14425,-0.942213 -0.89008,-0.231723 -1.92787,-0.426493 -2.83979,-0.499067 -2.26967,0.005 -4.35836,0.150936 -6.62779,0.184432 -0.49782,0.0073 -0.99414,0.0601 -1.48974,0.107603 -1.93468,0.185449 -1.8174,0.903246 -3.66557,1.517847 -0.69962,0.262318 -1.44926,0.514787 -2.11224,0.869421 -0.5352897,0.286328 -0.9572997,0.751201 -1.5036197,1.017306 l 5.4669097,0.18978 z"
       sodipodi:nodetypes="cscsscscssccccccccssccscsscccccsscsscsccssscsssscssscssccsscsscsscsccc" />
    <path
       style="fill:#ffffff;stroke-width:0.607999;stroke-linejoin:round"
       id="path1759"
       d="m 26.864388,4.8374565 c 2.02838,0.31219 -1.99258,-0.780654 -4.02866,-0.739734 -2.5083,0.05041 -5.01603,0.125818 -7.52405,0.188728 -2.63885,0.391263 -5.17278,1.125225 -7.3818298,2.671677 -1.31864,0.92312 -1.64997,1.37885 -2.74518,2.52237 -0.91634,1.1730495 -1.84743,2.4212695 -2.1406,3.9210195 -0.0704,0.36018 -0.12899,0.73991 -0.0559,1.09955 0.20366,1.00234 0.7013,1.14275 1.46004,1.71158 0.45208,0.16146 0.89233,0.36096 1.35624,0.48437 0.96386,0.25639 2.34068,0.4022 3.31989,0.4867 1.7861398,0.15414 3.5728298,0.17616 5.3640198,0.18628 2.47188,-0.006 4.94376,-0.0119 7.41564,-0.0189 0.53582,-0.002 1.07164,-0.009 1.60745,-0.007 0.46934,0.002 1.78358,-0.21062 1.31434,-0.20063 -1.75279,0.0373 -3.41566,0.0485 -5.16567,0.15398 -0.30206,0.0182 0.5995,0.2309 0.88481,0.33174 0.30618,0.10823 0.58595,0.28018 0.87893,0.42027 0.29865,0.22385 0.61943,0.42085 0.89594,0.67153 1.18798,1.07702 2.13446,2.68889 2.31441,4.29981 0.0452,0.40472 -0.006,0.81446 -0.009,1.22169 -0.29884,1.09065 -0.26975,1.45839 -1.06099,2.34981 -1.25489,1.41379 -3.17923,2.03194 -4.98777,2.3017 -2.04354,0.10352 -2.80506,0.14504 -4.72893,-0.45103 -2.38527,-0.53427 -3.02524,-0.91431 -5.2167998,-1.83904 l -3.9651,0.091 0.3274,0.18709 c 2.22606,1.27203 3.08619,1.30329 5.6351598,1.88383 4.13881,0.94263 4.43032,0.88275 9.56365,1.00422 2.26942,-0.15281 3.92399,-0.12798 6.10866,-0.78569 1.76024,-0.52993 3.40683,-1.65219 4.19421,-3.35797 0.20056,-0.4345 0.26205,-0.92053 0.39308,-1.3808 10e-4,-0.45435 0.0516,-0.91123 0.004,-1.36306 -0.17523,-1.65701 -1.09637,-3.43951 -2.15384,-4.7069 -0.24173,-0.28972 -0.52461,-0.54246 -0.78691,-0.81369 -0.28866,-0.19395 -0.55419,-0.42781 -0.86598,-0.58185 -2.25758,-1.11541 -8.1202,-0.39416 -8.36387,-0.39513 -0.38433,-0.002 -0.76848,0.017 -1.15272,0.0256 -0.48227,0.0107 -1.92908,0.0213 -1.44681,0.0323 1.35023,0.0307 2.70109,0.0179 4.05164,0.0269 -1.74789,0.006 -3.48933,0.003 -5.23283,-0.14362 -0.86399,-0.0727 -2.07118,-0.20624 -2.93131,-0.40789 -0.3774,-0.0885 -0.74105,-0.22781 -1.11157,-0.34172 -0.56309,-0.32025 -1.0621301,-0.47264 -1.3462798,-1.11206 -0.12519,-0.28171 -0.16885,-0.60144 -0.1665,-0.90971 0.0105,-1.37584 0.7906998,-2.5654 1.5511498,-3.6395395 1.06383,-1.15068 1.24484,-1.47606 2.57891,-2.37421 2.862028,-1.8541831 3.854542,-1.9146558 6.939082,-2.1763919 3.190147,0.5422347 5.900908,-0.6060621 5.900908,-0.6060621 z"
       sodipodi:nodetypes="sscscsccsscssssscsscsccccsscssccscsssscsscssccccs" />
  </g>
</svg>
