<?xml version="1.0" encoding="UTF-8" standalone="no"?>
<!-- Created with Inkscape (http://www.inkscape.org/) -->

<svg
   width="128"
   height="128"
   viewBox="0 0 33.866666 33.866666"
   version="1.1"
   id="svg8880"
   sodipodi:docname="unlock-profile.svg"
   inkscape:version="1.2.2 (b0a84865, 2022-12-01)"
   xmlns:inkscape="http://www.inkscape.org/namespaces/inkscape"
   xmlns:sodipodi="http://sodipodi.sourceforge.net/DTD/sodipodi-0.dtd"
   xmlns="http://www.w3.org/2000/svg"
   xmlns:svg="http://www.w3.org/2000/svg">
  <sodipodi:namedview
     id="namedview8882"
     pagecolor="#717171"
     bordercolor="#000000"
     borderopacity="0.25"
     inkscape:showpageshadow="2"
     inkscape:pageopacity="0"
     inkscape:pagecheckerboard="0"
     inkscape:deskcolor="#d1d1d1"
     inkscape:document-units="px"
     showgrid="false"
     inkscape:zoom="4"
     inkscape:cx="58.5"
     inkscape:cy="36.875"
     inkscape:window-width="2003"
     inkscape:window-height="1205"
     inkscape:window-x="174"
     inkscape:window-y="77"
     inkscape:window-maximized="0"
     inkscape:current-layer="layer1" />
  <defs
     id="defs8877" />
  <g
     inkscape:label="Layer 1"
     inkscape:groupmode="layer"
     id="layer1">
    <g
       id="g667">
      <path
         style="fill:#ffffff;fill-opacity:1;stroke-width:0.629041;stroke-linejoin:round"
         id="path9466"
         d="m 16.961405,11.421689 c 0.06766,-0.07343 0.452309,-0.601119 0.524428,-0.67091 0.625674,-0.605483 1.731238,-1.2940854 2.133851,-1.5598158 0.221041,-0.1458901 1.168297,-0.4781719 1.4302,-0.5476247 0.256021,-0.020666 0.511071,-0.06536 0.768065,-0.062003 0.157292,0.00207 0.313336,0.03713 0.46411,0.078102 0.468948,0.1274345 0.720011,0.2351897 1.072321,0.5498965 0.375492,0.3354152 0.576528,0.6864307 0.854207,1.090795 0.307062,0.546471 0.564477,0.942462 0.74713,1.549133 0.331409,1.100768 0.26417,1.813573 0.03003,2.934321 -0.08197,0.392331 -0.238037,0.768665 -0.357055,1.152996 -0.206232,0.385621 -0.386896,0.783551 -0.618697,1.156863 -0.429456,0.691627 -0.921569,1.498508 -1.463801,2.109256 -0.34117,0.384282 -0.716017,0.804093 -1.087293,1.167248 -0.622005,0.608399 -1.516789,1.814468 -2.172065,2.370665 -0.542839,0.513065 -1.599841,1.615736 -2.005219,2.09457 -0.168492,0.199023 -0.341759,0.44952 -0.427791,0.692428 -0.08919,0.251807 -0.115711,0.230268 -0.107907,0.481501 0.06876,0.280457 0.05512,0.413834 0.182037,0.642234 0.01593,0.03625 0.246315,-0.340068 0.331662,-0.464404 0.114513,-0.187656 0.262578,-0.425047 0.398067,-0.600005 0.09756,-0.09455 0.49618,-0.661871 0.606805,-0.743551 0.555485,-0.69506 0.750315,-0.909656 1.381122,-1.455241 0.828894,-0.659487 1.663038,-1.77726 2.44053,-2.508003 0.394145,-0.370444 0.869611,-0.699864 1.237147,-1.092463 0.330393,-0.352924 0.663366,-0.705631 0.956866,-1.08478 0.849635,-1.097578 0.873587,-1.312547 1.460723,-2.531603 0.345764,-1.160614 0.519866,-1.440542 0.518541,-2.659523 -9.6e-4,-0.920964 -0.03418,-1.096656 -0.367172,-1.957966 C 25.680041,11.00491 25.311576,10.428186 25.007022,9.9162417 24.843547,9.694128 24.694116,9.4628322 24.516595,9.2499011 24.188495,8.8563529 23.808991,8.4758729 23.340565,8.2154032 22.724822,7.8730171 22.251602,7.7993371 21.511592,7.7991802 c -0.308903,-6.54e-5 -0.61277,0.071888 -0.919156,0.1078314 -0.302075,0.098498 -0.6156,0.1715518 -0.906228,0.295493 -0.949377,0.4048706 -2.2915,1.4384545 -2.817143,2.2655214 -0.05901,0.09284 -0.09666,0.195716 -0.145002,0.293575 -0.01622,0.03609 0.221125,0.696177 0.237342,0.660088 z"
         sodipodi:nodetypes="ccsccsscsscssscssccccccssscsscssscsccc" />
      <path
         style="fill:#ffffff;fill-opacity:1;stroke-width:0.629041;stroke-linejoin:round"
         id="path9466-4"
         d="m 16.932286,11.459265 c -0.06766,-0.07343 -0.452309,-0.601119 -0.524428,-0.67091 C 15.782184,10.182872 14.67662,9.4942694 14.274007,9.228539 14.052966,9.0826489 13.10571,8.7503671 12.843807,8.6809143 c -0.256021,-0.020666 -0.511071,-0.06536 -0.768065,-0.062003 -0.157292,0.00207 -0.313336,0.03713 -0.46411,0.078102 -0.468948,0.1274345 -0.720011,0.2351897 -1.072321,0.5498965 -0.375492,0.3354152 -0.5765284,0.6864306 -0.8542074,1.0907952 -0.307062,0.546471 -0.564477,0.942462 -0.74713,1.549133 -0.331409,1.100768 -0.26417,1.813573 -0.03003,2.934321 0.08197,0.392331 0.238037,0.768665 0.357055,1.152996 0.206232,0.385621 0.386896,0.783551 0.618697,1.156863 0.4294564,0.691627 0.9215694,1.498508 1.4638014,2.109256 0.34117,0.384282 0.716017,0.804093 1.087293,1.167248 0.622005,0.608399 1.516789,1.814468 2.172065,2.370665 0.542839,0.513065 1.599841,1.615736 2.005219,2.09457 0.168492,0.199023 0.341759,0.44952 0.427791,0.692428 0.08919,0.251807 0.115711,0.230268 0.107907,0.481501 -0.06876,0.280457 -0.05512,0.413834 -0.182037,0.642234 -0.01593,0.03625 -0.246315,-0.340068 -0.331662,-0.464404 -0.114513,-0.187656 -0.262578,-0.425047 -0.398067,-0.600005 -0.09756,-0.09455 -0.49618,-0.661871 -0.606805,-0.743551 -0.555485,-0.69506 -0.750315,-0.909656 -1.381122,-1.455241 -0.828894,-0.659487 -1.663038,-1.77726 -2.44053,-2.508003 -0.394145,-0.370444 -0.869611,-0.699864 -1.237147,-1.092463 -0.330393,-0.352924 -0.6633664,-0.705631 -0.9568664,-1.08478 -0.849635,-1.097578 -0.873587,-1.312547 -1.460723,-2.531603 -0.345764,-1.160614 -0.519866,-1.440542 -0.518541,-2.659523 9.6e-4,-0.920964 0.03418,-1.096656 0.367172,-1.957966 0.212206,-0.548895 0.580671,-1.125619 0.885225,-1.6375636 0.163475,-0.2221136 0.312906,-0.4534094 0.490427,-0.6663405 0.3281,-0.3935482 0.7076044,-0.7740282 1.1760304,-1.0344979 0.615743,-0.3423861 1.088963,-0.4160661 1.828973,-0.416223 0.308903,-6.54e-5 0.61277,0.071888 0.919156,0.1078314 0.302075,0.098498 0.6156,0.1715518 0.906228,0.295493 0.949377,0.4048706 2.2915,1.4384545 2.817143,2.2655216 0.05901,0.09284 0.09666,0.195716 0.145002,0.293575 0.01622,0.03609 -0.221125,0.696177 -0.237342,0.660088 z"
         sodipodi:nodetypes="ccsccsscsscssscssccccccssscsscssscsccc" />
    </g>
    <g
       id="g743"
       transform="translate(0,0.52916666)">
      <g
         id="g663"
         transform="translate(1.2248533)">
        <path
           style="fill:#ffffff;fill-rule:evenodd;stroke-width:1.7;stroke-linejoin:round"
           id="path519"
           d="m 15.400618,15.929563 c -0.0509,-0.03893 -0.113782,-0.05768 -0.166464,-0.09333 -0.04812,-0.03257 -0.09153,-0.07164 -0.136539,-0.108387 -0.05758,-0.04701 -0.121928,-0.08722 -0.171222,-0.142857 -0.101112,-0.114117 -0.216091,-0.34682 -0.284867,-0.473847 -0.04023,-0.09255 -0.09206,-0.180873 -0.120678,-0.27764 -0.06677,-0.225751 -0.07476,-0.588165 -0.0056,-0.815746 0.05958,-0.196086 0.11856,-0.233401 0.249101,-0.390114 0.111387,-0.105193 0.235815,-0.235447 0.370326,-0.314283 0.06281,-0.03681 0.132209,-0.06147 0.200702,-0.08615 0.06121,-0.02205 0.123266,-0.04425 0.187624,-0.05377 0.07321,-0.0083 0.101445,-0.0078 0.217346,-0.01606 0.14959,-0.0036 0.261848,-9.9e-4 0.384424,-0.0039 0.08112,0.0057 0.252846,-0.622027 0.06389,-0.676635 -0.08588,-0.01668 -0.172635,-0.0285 -0.258953,-0.04275 -0.15835,-0.0013 -0.316998,-0.01374 -0.475051,-0.0039 -0.103615,0.0064 -0.206053,0.02819 -0.306998,0.05243 -0.100963,0.02424 -0.201951,0.05179 -0.297387,0.0927 -0.184802,0.07921 -0.419904,0.231413 -0.569569,0.365741 -0.09028,0.08103 -0.166733,0.17625 -0.2501,0.264376 -0.164638,0.254113 -0.268927,0.378393 -0.363046,0.670948 -0.135555,0.421352 -0.11688,0.827862 0.01156,1.248004 0.03991,0.130566 0.102733,0.252998 0.1541,0.379497 0.07715,0.12102 0.141444,0.251275 0.231457,0.36306 0.231233,0.287168 0.496707,0.472931 0.850035,0.569375 0.103232,0.02818 0.191637,0.02461 0.294853,0.02618 0.03768,0.01351 0.228758,-0.519388 0.191076,-0.532899 z"
           sodipodi:nodetypes="ccssccccscccccccccscsccssccc" />
        <path
           style="fill:#ffffff;fill-rule:evenodd;stroke-width:1.7;stroke-linejoin:round"
           id="path519-8"
           d="m 16.043366,15.929563 c 0.0509,-0.03893 0.113782,-0.05768 0.166464,-0.09333 0.04812,-0.03257 0.09153,-0.07164 0.136539,-0.108387 0.05758,-0.04701 0.121928,-0.08722 0.171222,-0.142857 0.101112,-0.114117 0.216091,-0.34682 0.284867,-0.473847 0.04023,-0.09255 0.09206,-0.180873 0.120678,-0.27764 0.06677,-0.225751 0.07476,-0.588165 0.0056,-0.815746 -0.05958,-0.196086 -0.11856,-0.233401 -0.249101,-0.390114 -0.111387,-0.105193 -0.235815,-0.235447 -0.370326,-0.314283 -0.06281,-0.03681 -0.132209,-0.06147 -0.200702,-0.08615 -0.06121,-0.02205 -0.123266,-0.04425 -0.187624,-0.05377 -0.07321,-0.0083 -0.101445,-0.0078 -0.217346,-0.01606 -0.14959,-0.0036 -0.261848,-9.9e-4 -0.384424,-0.0039 -0.08112,0.0057 -0.252846,-0.622027 -0.06389,-0.676635 0.08588,-0.01668 0.172635,-0.0285 0.258953,-0.04275 0.15835,-0.0013 0.316998,-0.01374 0.475051,-0.0039 0.103615,0.0064 0.206053,0.02819 0.306998,0.05243 0.100963,0.02424 0.201951,0.05179 0.297387,0.0927 0.184802,0.07921 0.419904,0.231413 0.569569,0.365741 0.09028,0.08103 0.166733,0.17625 0.2501,0.264376 0.164638,0.254113 0.268927,0.378393 0.363046,0.670948 0.135555,0.421352 0.11688,0.827862 -0.01156,1.248004 -0.03991,0.130566 -0.102733,0.252998 -0.1541,0.379497 -0.07715,0.12102 -0.141444,0.251275 -0.231457,0.36306 -0.231233,0.287168 -0.496707,0.472931 -0.850035,0.569375 -0.103232,0.02818 -0.191637,0.02461 -0.294853,0.02618 -0.03768,0.01351 -0.228758,-0.519388 -0.191076,-0.532899 z"
           sodipodi:nodetypes="ccssccccscccccccccscsccssccc" />
      </g>
      <g
         id="g735"
         transform="translate(0.6102238,-1.2483452)">
        <path
           style="fill:#ffffff;fill-rule:evenodd;stroke-width:1.7;stroke-linejoin:round"
           id="path679"
           d="m 15.73231,17.125959 c -0.101311,0.202725 -0.18251,0.414474 -0.28248,0.617953 -0.06963,0.141721 -0.439248,0.846785 -0.49192,0.949304 -0.09427,0.183475 -0.186579,0.367946 -0.279868,0.551919 -0.146155,0.300339 -0.295973,0.595902 -0.425929,0.903582 -0.03433,0.08127 -0.07013,0.162586 -0.09304,0.247783 -0.01111,0.0413 -0.03573,0.09545 -0.0081,0.128066 0.214928,0.253364 0.274938,0.187535 0.544265,0.157147 0.604172,-0.03248 1.071344,-0.03799 1.679351,-0.04062 -0.0372,-0.324754 -0.02024,-0.403949 -0.03371,-0.573057 -0.468242,0.0024 -0.936721,0.03854 -1.386707,0.168948 -0.14485,0.04198 -0.138911,0.03862 -0.283237,0.0941 0.124349,-0.157434 0.427095,-0.630675 0.553413,-0.866007 0.08964,-0.189379 0.18445,-0.376394 0.268916,-0.568136 0.239703,-0.544139 0.446024,-1.114209 0.520225,-1.707004 0.0045,-0.01989 -0.276725,-0.08386 -0.281249,-0.06397 z"
           sodipodi:nodetypes="csscssccccsccsccc" />
        <path
           style="fill:#ffffff;fill-rule:evenodd;stroke-width:1.7;stroke-linejoin:round"
           id="path679-0"
           d="m 16.940933,17.125959 c 0.101311,0.202725 0.18251,0.414474 0.28248,0.617953 0.06963,0.141721 0.439248,0.846785 0.49192,0.949304 0.09427,0.183475 0.186579,0.367946 0.279868,0.551919 0.146155,0.300339 0.295973,0.595902 0.425929,0.903582 0.03433,0.08127 0.07013,0.162586 0.09304,0.247783 0.01111,0.0413 0.03573,0.09545 0.0081,0.128066 -0.214928,0.253364 -0.274938,0.187535 -0.544265,0.157147 -0.604172,-0.03248 -1.075729,-0.03945 -1.679351,-0.04062 0.0372,-0.324754 0.02024,-0.403949 0.03371,-0.573057 0.468242,0.0024 0.936721,0.03854 1.386707,0.168948 0.14485,0.04198 0.138911,0.03862 0.283237,0.0941 -0.124349,-0.157434 -0.427095,-0.630675 -0.553413,-0.866007 -0.08964,-0.189379 -0.18445,-0.376394 -0.268916,-0.568136 -0.239703,-0.544139 -0.446024,-1.114209 -0.520225,-1.707004 -0.0045,-0.01989 0.276725,-0.08386 0.281249,-0.06397 z"
           sodipodi:nodetypes="csscssccccsccsccc" />
      </g>
    </g>
    <circle
       id="path681"
       style="fill:#ffffff;stroke:#000000;stroke-width:0.264583"
       cx="20.228962"
       cy="16.41703"
       r="0.0013238862" />
    <circle
       id="path683"
       style="fill:#ffffff;stroke:#000000;stroke-width:0.264583"
       cx="17.773424"
       cy="17.820196"
       r="0.0013238862" />
    <circle
       id="path685"
       style="fill:#ffffff;stroke:#000000;stroke-width:0.264583"
       cx="17.095228"
       cy="21.515198"
       r="0.0013238862" />
    <circle
       id="path687"
       style="fill:#ffffff;stroke:#000000;stroke-width:0.264583"
       cx="17.892448"
       cy="18.20664"
       r="0.00093612896" />
  </g>
</svg>
